<?xml version="1.0" encoding="utf-8"?>
<!-- Generator: Adobe Illustrator 22.1.0, SVG Export Plug-In . SVG Version: 6.00 Build 0)  -->
<svg version="1.1" id="Ebene_1" xmlns="http://www.w3.org/2000/svg" xmlns:xlink="http://www.w3.org/1999/xlink" x="0px" y="0px"
	 viewBox="0 0 100 100" style="enable-background:new 0 0 100 100;" xml:space="preserve">
<g>
	<path d="M96,4v92H4V4H96 M100,0H0v100h100V0L100,0z"/>
</g>
<g>
	<path d="M15.9,63.7V35.5h18v5H22V47h11.6v5H22v6.8h12v5H15.9z"/>
	<path d="M38.2,59.9l3.5-3.9c2.1,2.3,4.6,3.3,7.1,3.3c2.9,0,4.4-1.3,4.4-3.8c0-2-1-2.9-3.8-3.4l-3-0.5c-5.1-0.8-7.2-4-7.2-8.1
		c0-5.4,3.8-8.6,10.1-8.6c4.3,0,7.6,1.5,9.6,3.8l-3.4,3.8C54.2,41,52.1,40,49.5,40c-2.7,0-4.1,1.1-4.1,3.4c0,1.9,1.1,2.8,3.9,3.3
		l3,0.5c4.5,0.8,7.2,3.5,7.2,7.9c0,5.3-3.7,9.2-10.8,9.2C44,64.2,40.4,62.5,38.2,59.9z"/>
	<path d="M62.9,49.6c0-9.3,3.6-14.6,11.1-14.6c5.8,0,8.9,3.2,10,8.1l-5.7,1.4c-0.6-2.7-1.6-4.6-4.4-4.6c-3.3,0-4.5,2.7-4.5,7.2v4.9
		c0,4.5,1.3,7.2,4.5,7.2c2.8,0,3.8-1.9,4.4-4.6l5.7,1.4c-1.1,4.9-4.2,8.1-10,8.1C66.5,64.2,62.9,58.9,62.9,49.6z"/>
</g>
</svg>
