<?xml version="1.0" encoding="utf-8"?>
<!-- Generator: Adobe Illustrator 22.1.0, SVG Export Plug-In . SVG Version: 6.00 Build 0)  -->
<svg version="1.1"
	 id="Ebene_1" xmlns:cc="http://creativecommons.org/ns#" xmlns:dc="http://purl.org/dc/elements/1.1/" xmlns:rdf="http://www.w3.org/1999/02/22-rdf-syntax-ns#"
	 xmlns="http://www.w3.org/2000/svg" xmlns:xlink="http://www.w3.org/1999/xlink" x="0px" y="0px" viewBox="0 0 495.5 476"
	 style="enable-background:new 0 0 495.5 476;" xml:space="preserve">
<style type="text/css">
	.st0{fill:#1D1D1B;}
</style>
<g>
	<rect x="58" y="107.9" class="st0" width="87.2" height="236.1"/>
	<rect x="154.2" y="124.4" class="st0" width="87.2" height="236.1"/>
	<rect x="252.7" y="107.9" class="st0" width="87.2" height="236.1"/>
	<rect x="347.8" y="124.4" class="st0" width="87.2" height="236.1"/>
</g>
<g>
	<path class="st0" d="M100.7,92.3c4,6,6.5,7.3,14.2,7.3c3.9,0,7.7-0.2,12.4-0.7c-0.1,0.1-0.3,0.2-0.4,0.3h43.6l3.6-15
		c-3.6,4-7.4,5.4-14.3,5.4c-5.1,0-8-0.4-10.7-1.4V69.5h5.8c4.3,0,5.8,0.7,7.5,3.6V59.3c-0.9,0.5-1.7,0.6-2.9,0.6h-10.4v-16h6.3
		c5.6,0,7.9,0.9,10.4,4.1V33.7c-1,0.5-1.7,0.6-3.4,0.6h-35.6c1.6,1.2,2.3,2.1,3.1,3.6c0.9,2,1.1,3.3,1.1,9.4v39
		c0,7.5-0.4,9.7-3.1,12.1c-4.9-4.1-12.3-14.7-21.9-31.2c8.7-3.7,12.7-8.8,12.7-16.2c0-6.3-3.8-12.1-9.7-14.7
		c-4.3-2-5.8-2.1-23.5-2.1H67c1.6,1.2,2.3,2,3.1,3.6c0.9,1.9,1.1,3.3,1.1,9.3v39.2c0,8.4-0.6,10.2-4.2,12.9h26.2
		c-3.6-2.8-4.2-4.6-4.2-12.9V70C94.6,81.8,98,88.4,100.7,92.3z M89,43.9c1.9,0,3.4,0.1,4.7,0.5c3.7,0.9,6.3,4.9,6.3,9.5
		c0,6.3-4.1,10.9-10.9,12.4V43.9H89z"/>
	<path class="st0" d="M248.3,94.7c6.5,4.3,12.6,5.9,22.5,5.9c8,0,13.1-0.7,19.2-2.4l5-13.7c-9.1,4.6-14.1,6.1-20.5,6.1
		c-13.1,0-21.2-9.6-21.2-25c0-7,1.6-13.1,4.6-17.1c2.7-3.6,7.1-5.5,12.7-5.5c5.7,0,10.4,1.5,15.9,5.1l-0.7-13.8
		c-4.7-0.8-9.7-1.3-14.4-1.3c-10.4,0-20,2.9-26.5,8c-7.3,5.9-11.8,15.6-11.8,25.6C233,78.1,238.6,88.4,248.3,94.7z"/>
	<path class="st0" d="M178.9,85.6c-2.5,7.7-3.4,9.2-7.6,13.7h20.3c-3.1-3-3.6-3.8-3.6-5.8c0-1.4,0.4-3.1,1.5-6.1l2.7-7.9h19.6
		l2.6,7.9c1.1,3.2,1.4,4.6,1.4,5.9c0,2.2-0.9,3.6-4,6h28.5c-4.5-4.5-5.5-6.2-8-13.1l-19.1-52h-22.9c2.8,2.3,3.7,3.7,3.7,5.9
		c0,1.3-0.1,1.8-1.9,6.8L178.9,85.6z M201.6,50.8l6.9,19.6H195L201.6,50.8z"/>
	<path class="st0" d="M307.4,45.3v41c0,8.4-0.6,10.1-4.2,12.9h26.7c-3.4-3.6-4.4-6.7-4.4-13.2V45.3c1.9-0.4,3.6-0.6,5.7-0.6
		c5,0,7.1,1,8.9,4.4l3.4-15.5c-3,0.6-3.6,0.6-16.3,0.6h-20.8L295.9,34l-1.6-0.1l-3.8,15.2c5.1-3.5,7.1-4.2,12.2-4.2
		C304.5,45,305.9,45.1,307.4,45.3z"/>
	<path class="st0" d="M200.1,369.8h-22.9c2.8,2.3,3.7,3.7,3.7,5.9c0,1.3-0.1,1.8-1.9,6.8l-13.3,38.6c-1.8,5.3-2.7,7.7-4.5,10.1
		c-4.8-5.2-11.3-14.8-19.2-28.6c8.7-3.7,12.7-8.8,12.7-16.2c0-6.3-3.8-12.1-9.7-14.7c-4.3-2-5.8-2.1-23.5-2.1H103
		c1.6,1.2,2.3,2,3.1,3.6c0.9,1.9,1.1,3.3,1.1,9.3v39.2c0,8.4-0.6,10.2-4.2,12.9h26.1c-3.6-2.8-4.2-4.6-4.2-12.9v-16.3
		c5.6,11.8,9,18.3,11.7,22.3c4,6,6.5,7.3,14.2,7.3c2.8,0,5.6-0.1,8.7-0.4h19c-3.1-3-3.6-3.8-3.6-5.8c0-1.4,0.4-3.1,1.5-6.1l2.7-7.9
		h19.6l2.6,7.9c1.1,3.2,1.4,4.6,1.4,5.9c0,2.2-0.9,3.6-4,6h28.5c-4.5-4.5-5.5-6.2-8-13.1L200.1,369.8z M124.9,401.8v-22.4
		c1.9,0,3.4,0.1,4.7,0.5c3.7,0.9,6.3,4.9,6.3,9.5C135.9,395.7,131.7,400.4,124.9,401.8z M182,405.9l6.5-19.6l6.9,19.6H182z"/>
	<path class="st0" d="M410.7,402.7c8.7-3.7,12.7-8.8,12.7-16.2c0-6.3-3.8-12.1-9.7-14.7c-4.3-2-5.8-2.1-23.5-2.1h-18.5
		c1.6,1.2,2.3,2,3.1,3.6c0.9,1.9,1.1,3.3,1.1,9.3v39.2c0,8.4-0.6,10.2-4.2,12.9h26.1c-3.6-2.8-4.2-4.6-4.2-12.9v-16.3
		c5.6,11.8,9,18.3,11.7,22.3c4,6,6.5,7.3,14.2,7.3c4.2,0,8.4-0.3,13.7-0.8C428.3,430.6,420.6,419.8,410.7,402.7z M393.6,401.8v-22.4
		c1.9,0,3.4,0.1,4.7,0.5c3.7,0.9,6.3,4.9,6.3,9.5C404.5,395.7,400.4,400.4,393.6,401.8z"/>
	<path class="st0" d="M357.5,425.2c-5.1,0-8-0.4-10.7-1.4V405h5.8c4.3,0,5.8,0.7,7.5,3.6v-13.8c-0.9,0.5-1.7,0.6-2.9,0.6h-10.4
		v-15.9h6.3c5.6,0,7.9,0.9,10.4,4.1v-14.4c-1,0.5-1.7,0.6-3.4,0.6h-35.6c1.6,1.2,2.3,2.1,3.1,3.6c0.9,2,1.1,3.3,1.1,9.4v39
		c0,8.4-0.6,10.2-4.2,13h43.7l3.6-15C368.2,423.8,364.4,425.2,357.5,425.2z"/>
	<path class="st0" d="M286.5,369.8l-10.5-0.2l-1.6-0.1l-3.8,15.2c5.1-3.5,7.1-4.2,12.2-4.2c1.8,0,3.2,0.1,4.8,0.4v41
		c0,8.4-0.6,10.1-4.2,12.9h26.7c-3.4-3.6-4.4-6.7-4.4-13.2v-40.7c1.9-0.4,3.6-0.6,5.7-0.6c5,0,7.1,1,8.9,4.4l3.4-15.5
		c-3,0.6-3.6,0.6-16.3,0.6L286.5,369.8L286.5,369.8z"/>
	<path class="st0" d="M267.7,401c-3.5-3.3-6.7-5.1-14.8-8.5c-6.9-2.9-8.9-4.7-8.9-7.9c0-3.7,3.5-6.2,8.8-6.2c4.3,0,8.9,1.4,13.9,4.4
		v-11.5c-5.3-2-10.9-2.9-16.7-2.9c-14.9,0-24.4,7.6-24.4,19.3c0,5.2,2.1,10,5.7,13.3c2.9,2.7,4.6,3.6,13.8,8.1
		c8.8,4.3,10.5,5.8,10.5,9.7c0,4.6-3.7,7.2-10.2,7.2c-7.5,0-14.7-2.6-21-7.7l3.3,14.1c6.6,2.4,12.4,3.6,18.7,3.6
		c9.1,0,14.6-1.5,19.6-5.1c5.2-3.8,8-9.3,8-15.9C274,409.4,272,404.8,267.7,401z"/>
</g>
</svg>
