<?xml version="1.0" encoding="utf-8"?>
<!-- Generator: Adobe Illustrator 22.1.0, SVG Export Plug-In . SVG Version: 6.00 Build 0)  -->
<svg version="1.1" id="Ebene_1" xmlns="http://www.w3.org/2000/svg" xmlns:xlink="http://www.w3.org/1999/xlink" x="0px" y="0px"
	 viewBox="0 0 100 100" style="enable-background:new 0 0 100 100;" xml:space="preserve">
<style type="text/css">
	.st0{fill:none;stroke:#000000;stroke-width:4;stroke-miterlimit:10;}
	.st1{fill-rule:evenodd;clip-rule:evenodd;fill:none;stroke:#000000;stroke-width:4;stroke-miterlimit:10;}
</style>
<g>
	<path d="M96,4v92H4V4H96 M100,0H0v100h100V0L100,0z"/>
</g>
<g>
	<path d="M43,49h-4v4h4V49L43,49z M35,49h-4v4h4V49L35,49z M27,49h-4v4h4V49L27,49z M19,49h-4v4h4V49L19,49z M11,49H7v4h4V49L11,49z
		 M4,49H0v4h3v-3h1V49L4,49z M4,54H0v4h4V54L4,54z M4,62H0v4h4V62L4,62z M4,70H0v4h4V70L4,70z M4,78H0v4h4V78L4,78z M4,86H0v4h4V86
		L4,86z M4,94H0v4h2v2h4v-4H4V94L4,94z M14,96h-4v4h4V96L14,96z M22,96h-4v4h4V96L22,96z M30,96h-4v4h4V96L30,96z M38,96h-4v4h4V96
		L38,96z M46,96h-4v4h4V96L46,96z M51,96h-1v1h-3v3h3l0,0h-3h3l0,0h1V96L51,96z M51,89h-4v4h4V89L51,89z M51,81h-4v4h4V81L51,81z
		 M51,73h-4v4h4V73L51,73z M51,65h-4v4h4V65L51,65z M51,57h-4v4h4V57L51,57z M51,49h-4v4h4V49L51,49z"/>
</g>
<g>
	<line class="st0" x1="55" y1="45" x2="84" y2="16"/>
</g>
<polyline class="st1" points="63,16 84,16 84,37 "/>
</svg>
